<?xml version="1.0" encoding="UTF-8" standalone="no"?>
<!DOCTYPE svg PUBLIC "-//W3C//DTD SVG 1.1//EN"
 "http://www.w3.org/Graphics/SVG/1.1/DTD/svg11.dtd">
<!-- Generated by graphviz version 14.0.2 (20251019.1705)
 -->
<!-- Title: App\Repository\VilleRepository Pages: 1 -->
<svg width="161pt" height="84pt"
 viewBox="0.00 0.00 161.00 84.00" xmlns="http://www.w3.org/2000/svg" xmlns:xlink="http://www.w3.org/1999/xlink">
<g id="graph0" class="graph" transform="scale(1 1) rotate(0) translate(4 80)">
<title>App\Repository\VilleRepository</title>
<!-- Node1 -->
<g id="Node000001" class="node">
<title>Node1</title>
<g id="a_Node000001"><a xlink:title="&lt;Ville&gt;">
<polygon fill="#999999" stroke="#666666" points="152.5,-20 0,-20 0,0 152.5,0 152.5,-20"/>
<text xml:space="preserve" text-anchor="middle" x="76.25" y="-6.5" font-family="Helvetica,sans-Serif" font-size="10.00">App\Repository\VilleRepository</text>
</a>
</g>
</g>
<!-- Node2 -->
<g id="Node000002" class="node">
<title>Node2</title>
<g id="a_Node000002"><a xlink:title=" ">
<polygon fill="white" stroke="#666666" points="137.13,-76 15.37,-76 15.37,-56 137.13,-56 137.13,-76"/>
<text xml:space="preserve" text-anchor="middle" x="76.25" y="-62.5" font-family="Helvetica,sans-Serif" font-size="10.00">ServiceEntityRepository</text>
</a>
</g>
</g>
<!-- Node2&#45;&gt;Node1 -->
<g id="edge1_Node000001_Node000002" class="edge">
<title>Node2&#45;&gt;Node1</title>
<g id="a_edge1_Node000001_Node000002"><a xlink:title=" ">
<path fill="none" stroke="#63b8ff" d="M69.67,-44.43C69.22,-36.11 69.66,-26.93 71,-20.3"/>
<polygon fill="#63b8ff" stroke="#63b8ff" points="66.17,-44.57 70.81,-54.09 73.12,-43.75 66.17,-44.57"/>
</a>
</g>
</g>
<!-- Node2&#45;&gt;Node1 -->
<g id="edge2_Node000001_Node000002" class="edge">
<title>Node2&#45;&gt;Node1</title>
<g id="a_edge2_Node000001_Node000002"><a xlink:title=" ">
<path fill="none" stroke="#63b8ff" d="M82.83,-44.43C83.28,-36.11 82.84,-26.93 81.5,-20.3"/>
<polygon fill="#63b8ff" stroke="#63b8ff" points="79.38,-43.75 81.69,-54.09 86.33,-44.57 79.38,-43.75"/>
</a>
</g>
</g>
</g>
</svg>
