<?xml version="1.0" encoding="UTF-8" standalone="no"?>
<!DOCTYPE svg PUBLIC "-//W3C//DTD SVG 1.1//EN"
 "http://www.w3.org/Graphics/SVG/1.1/DTD/svg11.dtd">
<!-- Generated by graphviz version 14.0.2 (20251019.1705)
 -->
<!-- Title: App\DataFixtures\SortieFixtures Pages: 1 -->
<svg width="206pt" height="84pt"
 viewBox="0.00 0.00 206.00 84.00" xmlns="http://www.w3.org/2000/svg" xmlns:xlink="http://www.w3.org/1999/xlink">
<g id="graph0" class="graph" transform="scale(1 1) rotate(0) translate(4 80)">
<title>App\DataFixtures\SortieFixtures</title>
<!-- Node1 -->
<g id="Node000001" class="node">
<title>Node1</title>
<g id="a_Node000001"><a xlink:title=" ">
<polygon fill="#999999" stroke="#666666" points="156.25,-20 0,-20 0,0 156.25,0 156.25,-20"/>
<text xml:space="preserve" text-anchor="middle" x="78.13" y="-6.5" font-family="Helvetica,sans-Serif" font-size="10.00">App\DataFixtures\SortieFixtures</text>
</a>
</g>
</g>
<!-- Node2 -->
<g id="Node000002" class="node">
<title>Node2</title>
<g id="a_Node000002"><a xlink:title=" ">
<polygon fill="white" stroke="#666666" points="48.13,-76 2.13,-76 2.13,-56 48.13,-56 48.13,-76"/>
<text xml:space="preserve" text-anchor="middle" x="25.13" y="-62.5" font-family="Helvetica,sans-Serif" font-size="10.00">Fixture</text>
</a>
</g>
</g>
<!-- Node2&#45;&gt;Node1 -->
<g id="edge1_Node000001_Node000002" class="edge">
<title>Node2&#45;&gt;Node1</title>
<g id="a_edge1_Node000001_Node000002"><a xlink:title=" ">
<path fill="none" stroke="#63b8ff" d="M42.24,-47.57C51.14,-38.5 61.66,-27.78 69,-20.3"/>
<polygon fill="#63b8ff" stroke="#63b8ff" points="39.92,-44.93 35.42,-54.51 44.92,-49.83 39.92,-44.93"/>
</a>
</g>
</g>
<!-- Node3 -->
<g id="Node000003" class="node">
<title>Node3</title>
<g id="a_Node000003"><a xlink:title=" ">
<polygon fill="white" stroke="#666666" points="197.88,-76 66.38,-76 66.38,-56 197.88,-56 197.88,-76"/>
<text xml:space="preserve" text-anchor="middle" x="132.13" y="-62.5" font-family="Helvetica,sans-Serif" font-size="10.00">DependentFixtureInterface</text>
</a>
</g>
</g>
<!-- Node3&#45;&gt;Node1 -->
<g id="edge2_Node000001_Node000003" class="edge">
<title>Node3&#45;&gt;Node1</title>
<g id="a_edge2_Node000001_Node000003"><a xlink:title=" ">
<path fill="none" stroke="#63b8ff" d="M114.69,-47.57C105.62,-38.5 94.9,-27.78 87.42,-20.3"/>
<polygon fill="#63b8ff" stroke="#63b8ff" points="112.1,-49.93 121.65,-54.52 117.05,-44.98 112.1,-49.93"/>
</a>
</g>
</g>
</g>
</svg>
