<?xml version="1.0" encoding="UTF-8" standalone="no"?>
<!DOCTYPE svg PUBLIC "-//W3C//DTD SVG 1.1//EN"
 "http://www.w3.org/Graphics/SVG/1.1/DTD/svg11.dtd">
<!-- Generated by graphviz version 14.0.2 (20251019.1705)
 -->
<!-- Title: App\Repository\SortieRepository Pages: 1 -->
<svg width="167pt" height="84pt"
 viewBox="0.00 0.00 167.00 84.00" xmlns="http://www.w3.org/2000/svg" xmlns:xlink="http://www.w3.org/1999/xlink">
<g id="graph0" class="graph" transform="scale(1 1) rotate(0) translate(4 80)">
<title>App\Repository\SortieRepository</title>
<!-- Node1 -->
<g id="Node000001" class="node">
<title>Node1</title>
<g id="a_Node000001"><a xlink:title="&lt;Sortie&gt;">
<polygon fill="#999999" stroke="#666666" points="159.25,-20 0,-20 0,0 159.25,0 159.25,-20"/>
<text xml:space="preserve" text-anchor="middle" x="79.63" y="-6.5" font-family="Helvetica,sans-Serif" font-size="10.00">App\Repository\SortieRepository</text>
</a>
</g>
</g>
<!-- Node2 -->
<g id="Node000002" class="node">
<title>Node2</title>
<g id="a_Node000002"><a xlink:title=" ">
<polygon fill="white" stroke="#666666" points="140.5,-76 18.75,-76 18.75,-56 140.5,-56 140.5,-76"/>
<text xml:space="preserve" text-anchor="middle" x="79.63" y="-62.5" font-family="Helvetica,sans-Serif" font-size="10.00">ServiceEntityRepository</text>
</a>
</g>
</g>
<!-- Node2&#45;&gt;Node1 -->
<g id="edge1_Node000001_Node000002" class="edge">
<title>Node2&#45;&gt;Node1</title>
<g id="a_edge1_Node000001_Node000002"><a xlink:title=" ">
<path fill="none" stroke="#63b8ff" d="M73.05,-44.43C72.59,-36.11 73.04,-26.93 74.38,-20.3"/>
<polygon fill="#63b8ff" stroke="#63b8ff" points="69.54,-44.57 74.18,-54.09 76.49,-43.75 69.54,-44.57"/>
</a>
</g>
</g>
<!-- Node2&#45;&gt;Node1 -->
<g id="edge2_Node000001_Node000002" class="edge">
<title>Node2&#45;&gt;Node1</title>
<g id="a_edge2_Node000001_Node000002"><a xlink:title=" ">
<path fill="none" stroke="#63b8ff" d="M86.2,-44.43C86.66,-36.11 86.21,-26.93 84.87,-20.3"/>
<polygon fill="#63b8ff" stroke="#63b8ff" points="82.76,-43.75 85.07,-54.09 89.71,-44.57 82.76,-43.75"/>
</a>
</g>
</g>
</g>
</svg>
