<?xml version="1.0" encoding="UTF-8" standalone="no"?>
<!DOCTYPE svg PUBLIC "-//W3C//DTD SVG 1.1//EN"
 "http://www.w3.org/Graphics/SVG/1.1/DTD/svg11.dtd">
<!-- Generated by graphviz version 14.0.2 (20251019.1705)
 -->
<!-- Title: App\Repository\ParticipantRepository Pages: 1 -->
<svg width="141pt" height="96pt"
 viewBox="0.00 0.00 141.00 96.00" xmlns="http://www.w3.org/2000/svg" xmlns:xlink="http://www.w3.org/1999/xlink">
<g id="graph0" class="graph" transform="scale(1 1) rotate(0) translate(4 92)">
<title>App\Repository\ParticipantRepository</title>
<!-- Node1 -->
<g id="Node000001" class="node">
<title>Node1</title>
<g id="a_Node000001"><a xlink:title="&lt;Participant&gt;">
<polygon fill="#999999" stroke="#666666" points="133,-32 0,-32 0,0 133,0 133,-32"/>
<text xml:space="preserve" text-anchor="start" x="8" y="-18.5" font-family="Helvetica,sans-Serif" font-size="10.00">App\Repository\Participant</text>
<text xml:space="preserve" text-anchor="middle" x="66.5" y="-6.5" font-family="Helvetica,sans-Serif" font-size="10.00">Repository</text>
</a>
</g>
</g>
<!-- Node2 -->
<g id="Node000002" class="node">
<title>Node2</title>
<g id="a_Node000002"><a xlink:title=" ">
<polygon fill="white" stroke="#666666" points="127.38,-88 5.62,-88 5.62,-68 127.38,-68 127.38,-88"/>
<text xml:space="preserve" text-anchor="middle" x="66.5" y="-74.5" font-family="Helvetica,sans-Serif" font-size="10.00">ServiceEntityRepository</text>
</a>
</g>
</g>
<!-- Node2&#45;&gt;Node1 -->
<g id="edge1_Node000001_Node000002" class="edge">
<title>Node2&#45;&gt;Node1</title>
<g id="a_edge1_Node000001_Node000002"><a xlink:title=" ">
<path fill="none" stroke="#63b8ff" d="M60.05,-56.31C59.52,-48.37 59.69,-39.46 60.55,-32.14"/>
<polygon fill="#63b8ff" stroke="#63b8ff" points="56.56,-56.62 61.25,-66.12 63.51,-55.77 56.56,-56.62"/>
</a>
</g>
</g>
<!-- Node2&#45;&gt;Node1 -->
<g id="edge2_Node000001_Node000002" class="edge">
<title>Node2&#45;&gt;Node1</title>
<g id="a_edge2_Node000001_Node000002"><a xlink:title=" ">
<path fill="none" stroke="#63b8ff" d="M72.95,-56.31C73.48,-48.37 73.31,-39.46 72.45,-32.14"/>
<polygon fill="#63b8ff" stroke="#63b8ff" points="69.49,-55.77 71.75,-66.12 76.44,-56.62 69.49,-55.77"/>
</a>
</g>
</g>
</g>
</svg>
