<?xml version="1.0" encoding="UTF-8" standalone="no"?>
<!DOCTYPE svg PUBLIC "-//W3C//DTD SVG 1.1//EN"
 "http://www.w3.org/Graphics/SVG/1.1/DTD/svg11.dtd">
<!-- Generated by graphviz version 14.0.2 (20251019.1705)
 -->
<!-- Title: App\Repository\ResetPasswordRequestRepository Pages: 1 -->
<svg width="335pt" height="108pt"
 viewBox="0.00 0.00 335.00 108.00" xmlns="http://www.w3.org/2000/svg" xmlns:xlink="http://www.w3.org/1999/xlink">
<g id="graph0" class="graph" transform="scale(1 1) rotate(0) translate(4 104)">
<title>App\Repository\ResetPasswordRequestRepository</title>
<!-- Node1 -->
<g id="Node000001" class="node">
<title>Node1</title>
<g id="a_Node000001"><a xlink:title="&lt;ResetPasswordRequest&gt;">
<polygon fill="#999999" stroke="#666666" points="156.25,-32 0,-32 0,0 156.25,0 156.25,-32"/>
<text xml:space="preserve" text-anchor="start" x="8" y="-18.5" font-family="Helvetica,sans-Serif" font-size="10.00">App\Repository\ResetPassword</text>
<text xml:space="preserve" text-anchor="middle" x="78.13" y="-6.5" font-family="Helvetica,sans-Serif" font-size="10.00">RequestRepository</text>
</a>
</g>
</g>
<!-- Node2 -->
<g id="Node000002" class="node">
<title>Node2</title>
<g id="a_Node000002"><a xlink:title=" ">
<polygon fill="white" stroke="#666666" points="139,-94 17.25,-94 17.25,-74 139,-74 139,-94"/>
<text xml:space="preserve" text-anchor="middle" x="78.13" y="-80.5" font-family="Helvetica,sans-Serif" font-size="10.00">ServiceEntityRepository</text>
</a>
</g>
</g>
<!-- Node2&#45;&gt;Node1 -->
<g id="edge1_Node000001_Node000002" class="edge">
<title>Node2&#45;&gt;Node1</title>
<g id="a_edge1_Node000001_Node000002"><a xlink:title=" ">
<path fill="none" stroke="#63b8ff" d="M71.82,-62.43C71.09,-52.69 71.26,-41.26 72.32,-32.3"/>
<polygon fill="#63b8ff" stroke="#63b8ff" points="68.31,-62.56 73.03,-72.04 75.25,-61.68 68.31,-62.56"/>
</a>
</g>
</g>
<!-- Node2&#45;&gt;Node1 -->
<g id="edge2_Node000001_Node000002" class="edge">
<title>Node2&#45;&gt;Node1</title>
<g id="a_edge2_Node000001_Node000002"><a xlink:title=" ">
<path fill="none" stroke="#63b8ff" d="M84.43,-62.43C85.16,-52.69 84.99,-41.26 83.93,-32.3"/>
<polygon fill="#63b8ff" stroke="#63b8ff" points="81,-61.68 83.22,-72.04 87.94,-62.56 81,-61.68"/>
</a>
</g>
</g>
<!-- Node3 -->
<g id="Node000003" class="node">
<title>Node3</title>
<g id="a_Node000003"><a xlink:title=" ">
<polygon fill="white" stroke="#666666" points="327,-100 157.25,-100 157.25,-68 327,-68 327,-100"/>
<text xml:space="preserve" text-anchor="start" x="165.25" y="-86.5" font-family="Helvetica,sans-Serif" font-size="10.00">ResetPasswordRequestRepository</text>
<text xml:space="preserve" text-anchor="middle" x="242.13" y="-74.5" font-family="Helvetica,sans-Serif" font-size="10.00">Interface</text>
</a>
</g>
</g>
<!-- Node3&#45;&gt;Node1 -->
<g id="edge3_Node000001_Node000003" class="edge">
<title>Node3&#45;&gt;Node1</title>
<g id="a_edge3_Node000001_Node000003"><a xlink:title=" ">
<path fill="none" stroke="#63b8ff" d="M193.15,-63.29C168.67,-53.44 139.47,-41.69 116.62,-32.49"/>
<polygon fill="#63b8ff" stroke="#63b8ff" points="191.69,-66.47 202.27,-66.96 194.3,-59.98 191.69,-66.47"/>
</a>
</g>
</g>
</g>
</svg>
