<?xml version="1.0" encoding="UTF-8" standalone="no"?>
<!DOCTYPE svg PUBLIC "-//W3C//DTD SVG 1.1//EN"
 "http://www.w3.org/Graphics/SVG/1.1/DTD/svg11.dtd">
<!-- Generated by graphviz version 14.0.2 (20251019.1705)
 -->
<!-- Title: App\Repository\GroupeRepository Pages: 1 -->
<svg width="173pt" height="84pt"
 viewBox="0.00 0.00 173.00 84.00" xmlns="http://www.w3.org/2000/svg" xmlns:xlink="http://www.w3.org/1999/xlink">
<g id="graph0" class="graph" transform="scale(1 1) rotate(0) translate(4 80)">
<title>App\Repository\GroupeRepository</title>
<!-- Node1 -->
<g id="Node000001" class="node">
<title>Node1</title>
<g id="a_Node000001"><a xlink:title="&lt;Groupe&gt;">
<polygon fill="#999999" stroke="#666666" points="165.25,-20 0,-20 0,0 165.25,0 165.25,-20"/>
<text xml:space="preserve" text-anchor="middle" x="82.63" y="-6.5" font-family="Helvetica,sans-Serif" font-size="10.00">App\Repository\GroupeRepository</text>
</a>
</g>
</g>
<!-- Node2 -->
<g id="Node000002" class="node">
<title>Node2</title>
<g id="a_Node000002"><a xlink:title=" ">
<polygon fill="white" stroke="#666666" points="143.5,-76 21.75,-76 21.75,-56 143.5,-56 143.5,-76"/>
<text xml:space="preserve" text-anchor="middle" x="82.63" y="-62.5" font-family="Helvetica,sans-Serif" font-size="10.00">ServiceEntityRepository</text>
</a>
</g>
</g>
<!-- Node2&#45;&gt;Node1 -->
<g id="edge1_Node000001_Node000002" class="edge">
<title>Node2&#45;&gt;Node1</title>
<g id="a_edge1_Node000001_Node000002"><a xlink:title=" ">
<path fill="none" stroke="#63b8ff" d="M76.05,-44.43C75.59,-36.11 76.04,-26.93 77.38,-20.3"/>
<polygon fill="#63b8ff" stroke="#63b8ff" points="72.54,-44.57 77.18,-54.09 79.49,-43.75 72.54,-44.57"/>
</a>
</g>
</g>
<!-- Node2&#45;&gt;Node1 -->
<g id="edge2_Node000001_Node000002" class="edge">
<title>Node2&#45;&gt;Node1</title>
<g id="a_edge2_Node000001_Node000002"><a xlink:title=" ">
<path fill="none" stroke="#63b8ff" d="M89.2,-44.43C89.66,-36.11 89.21,-26.93 87.87,-20.3"/>
<polygon fill="#63b8ff" stroke="#63b8ff" points="85.76,-43.75 88.07,-54.09 92.71,-44.57 85.76,-43.75"/>
</a>
</g>
</g>
</g>
</svg>
