<?xml version="1.0" encoding="UTF-8" standalone="no"?>
<!DOCTYPE svg PUBLIC "-//W3C//DTD SVG 1.1//EN"
 "http://www.w3.org/Graphics/SVG/1.1/DTD/svg11.dtd">
<!-- Generated by graphviz version 14.0.2 (20251019.1705)
 -->
<!-- Title: App\Entity\User Pages: 1 -->
<svg width="242pt" height="96pt"
 viewBox="0.00 0.00 242.00 96.00" xmlns="http://www.w3.org/2000/svg" xmlns:xlink="http://www.w3.org/1999/xlink">
<g id="graph0" class="graph" transform="scale(1 1) rotate(0) translate(4 92)">
<title>App\Entity\User</title>
<!-- Node1 -->
<g id="Node000001" class="node">
<title>Node1</title>
<g id="a_Node000001"><a xlink:title=" ">
<polygon fill="#999999" stroke="#666666" points="143.5,-20 57.75,-20 57.75,0 143.5,0 143.5,-20"/>
<text xml:space="preserve" text-anchor="middle" x="100.63" y="-6.5" font-family="Helvetica,sans-Serif" font-size="10.00">App\Entity\User</text>
</a>
</g>
</g>
<!-- Node2 -->
<g id="Node000002" class="node">
<title>Node2</title>
<g id="a_Node000002"><a xlink:title=" ">
<polygon fill="white" stroke="#666666" points="75.25,-82 0,-82 0,-62 75.25,-62 75.25,-82"/>
<text xml:space="preserve" text-anchor="middle" x="37.63" y="-68.5" font-family="Helvetica,sans-Serif" font-size="10.00">UserInterface</text>
</a>
</g>
</g>
<!-- Node2&#45;&gt;Node1 -->
<g id="edge1_Node000001_Node000002" class="edge">
<title>Node2&#45;&gt;Node1</title>
<g id="a_edge1_Node000001_Node000002"><a xlink:title=" ">
<path fill="none" stroke="#63b8ff" d="M55.58,-53.9C67.12,-42.91 81.67,-29.05 91.06,-20.11"/>
<polygon fill="#63b8ff" stroke="#63b8ff" points="53.39,-51.15 48.56,-60.58 58.22,-56.22 53.39,-51.15"/>
</a>
</g>
</g>
<!-- Node3 -->
<g id="Node000003" class="node">
<title>Node3</title>
<g id="a_Node000003"><a xlink:title=" ">
<polygon fill="white" stroke="#666666" points="233.88,-88 93.38,-88 93.38,-56 233.88,-56 233.88,-88"/>
<text xml:space="preserve" text-anchor="start" x="101.38" y="-74.5" font-family="Helvetica,sans-Serif" font-size="10.00">PasswordAuthenticatedUser</text>
<text xml:space="preserve" text-anchor="middle" x="163.63" y="-62.5" font-family="Helvetica,sans-Serif" font-size="10.00">Interface</text>
</a>
</g>
</g>
<!-- Node3&#45;&gt;Node1 -->
<g id="edge2_Node000001_Node000003" class="edge">
<title>Node3&#45;&gt;Node1</title>
<g id="a_edge2_Node000001_Node000003"><a xlink:title=" ">
<path fill="none" stroke="#63b8ff" d="M139.31,-47.84C129.28,-38.29 118.22,-27.76 110.5,-20.41"/>
<polygon fill="#63b8ff" stroke="#63b8ff" points="136.65,-50.14 146.3,-54.5 141.48,-45.07 136.65,-50.14"/>
</a>
</g>
</g>
</g>
</svg>
