<?xml version="1.0" encoding="UTF-8" standalone="no"?>
<!DOCTYPE svg PUBLIC "-//W3C//DTD SVG 1.1//EN"
 "http://www.w3.org/Graphics/SVG/1.1/DTD/svg11.dtd">
<!-- Generated by graphviz version 14.0.2 (20251019.1705)
 -->
<!-- Title: App\Repository\UserRepository Pages: 1 -->
<svg width="302pt" height="84pt"
 viewBox="0.00 0.00 302.00 84.00" xmlns="http://www.w3.org/2000/svg" xmlns:xlink="http://www.w3.org/1999/xlink">
<g id="graph0" class="graph" transform="scale(1 1) rotate(0) translate(4 80)">
<title>App\Repository\UserRepository</title>
<!-- Node1 -->
<g id="Node000001" class="node">
<title>Node1</title>
<g id="a_Node000001"><a xlink:title="&lt;User&gt;">
<polygon fill="#999999" stroke="#666666" points="154.75,-20 0,-20 0,0 154.75,0 154.75,-20"/>
<text xml:space="preserve" text-anchor="middle" x="77.38" y="-6.5" font-family="Helvetica,sans-Serif" font-size="10.00">App\Repository\UserRepository</text>
</a>
</g>
</g>
<!-- Node2 -->
<g id="Node000002" class="node">
<title>Node2</title>
<g id="a_Node000002"><a xlink:title=" ">
<polygon fill="white" stroke="#666666" points="138.25,-76 16.5,-76 16.5,-56 138.25,-56 138.25,-76"/>
<text xml:space="preserve" text-anchor="middle" x="77.38" y="-62.5" font-family="Helvetica,sans-Serif" font-size="10.00">ServiceEntityRepository</text>
</a>
</g>
</g>
<!-- Node2&#45;&gt;Node1 -->
<g id="edge1_Node000001_Node000002" class="edge">
<title>Node2&#45;&gt;Node1</title>
<g id="a_edge1_Node000001_Node000002"><a xlink:title=" ">
<path fill="none" stroke="#63b8ff" d="M70.8,-44.43C70.34,-36.11 70.79,-26.93 72.13,-20.3"/>
<polygon fill="#63b8ff" stroke="#63b8ff" points="67.29,-44.57 71.93,-54.09 74.24,-43.75 67.29,-44.57"/>
</a>
</g>
</g>
<!-- Node2&#45;&gt;Node1 -->
<g id="edge2_Node000001_Node000002" class="edge">
<title>Node2&#45;&gt;Node1</title>
<g id="a_edge2_Node000001_Node000002"><a xlink:title=" ">
<path fill="none" stroke="#63b8ff" d="M83.95,-44.43C84.41,-36.11 83.96,-26.93 82.62,-20.3"/>
<polygon fill="#63b8ff" stroke="#63b8ff" points="80.51,-43.75 82.82,-54.09 87.46,-44.57 80.51,-43.75"/>
</a>
</g>
</g>
<!-- Node3 -->
<g id="Node000003" class="node">
<title>Node3</title>
<g id="a_Node000003"><a xlink:title=" ">
<polygon fill="white" stroke="#666666" points="294.13,-76 156.63,-76 156.63,-56 294.13,-56 294.13,-76"/>
<text xml:space="preserve" text-anchor="middle" x="225.38" y="-62.5" font-family="Helvetica,sans-Serif" font-size="10.00">PasswordUpgraderInterface</text>
</a>
</g>
</g>
<!-- Node3&#45;&gt;Node1 -->
<g id="edge3_Node000001_Node000003" class="edge">
<title>Node3&#45;&gt;Node1</title>
<g id="a_edge3_Node000001_Node000003"><a xlink:title=" ">
<path fill="none" stroke="#63b8ff" d="M188.82,-51.66C162.29,-41.98 127.05,-29.12 103.36,-20.48"/>
<polygon fill="#63b8ff" stroke="#63b8ff" points="187.58,-54.94 198.17,-55.08 189.98,-48.36 187.58,-54.94"/>
</a>
</g>
</g>
</g>
</svg>
