<?xml version="1.0" encoding="UTF-8" standalone="no"?>
<!DOCTYPE svg PUBLIC "-//W3C//DTD SVG 1.1//EN"
 "http://www.w3.org/Graphics/SVG/1.1/DTD/svg11.dtd">
<!-- Generated by graphviz version 14.0.2 (20251019.1705)
 -->
<!-- Title: App\DataFixtures\UserFixtures Pages: 1 -->
<svg width="204pt" height="84pt"
 viewBox="0.00 0.00 204.00 84.00" xmlns="http://www.w3.org/2000/svg" xmlns:xlink="http://www.w3.org/1999/xlink">
<g id="graph0" class="graph" transform="scale(1 1) rotate(0) translate(4 80)">
<title>App\DataFixtures\UserFixtures</title>
<!-- Node1 -->
<g id="Node000001" class="node">
<title>Node1</title>
<g id="a_Node000001"><a xlink:title=" ">
<polygon fill="#999999" stroke="#666666" points="151.88,-20 0.13,-20 0.13,0 151.88,0 151.88,-20"/>
<text xml:space="preserve" text-anchor="middle" x="76" y="-6.5" font-family="Helvetica,sans-Serif" font-size="10.00">App\DataFixtures\UserFixtures</text>
</a>
</g>
</g>
<!-- Node2 -->
<g id="Node000002" class="node">
<title>Node2</title>
<g id="a_Node000002"><a xlink:title=" ">
<polygon fill="white" stroke="#666666" points="46,-76 0,-76 0,-56 46,-56 46,-76"/>
<text xml:space="preserve" text-anchor="middle" x="23" y="-62.5" font-family="Helvetica,sans-Serif" font-size="10.00">Fixture</text>
</a>
</g>
</g>
<!-- Node2&#45;&gt;Node1 -->
<g id="edge1_Node000001_Node000002" class="edge">
<title>Node2&#45;&gt;Node1</title>
<g id="a_edge1_Node000001_Node000002"><a xlink:title=" ">
<path fill="none" stroke="#63b8ff" d="M40.11,-47.57C49.01,-38.5 59.53,-27.78 66.87,-20.3"/>
<polygon fill="#63b8ff" stroke="#63b8ff" points="37.8,-44.93 33.29,-54.51 42.79,-49.83 37.8,-44.93"/>
</a>
</g>
</g>
<!-- Node3 -->
<g id="Node000003" class="node">
<title>Node3</title>
<g id="a_Node000003"><a xlink:title=" ">
<polygon fill="white" stroke="#666666" points="195.75,-76 64.25,-76 64.25,-56 195.75,-56 195.75,-76"/>
<text xml:space="preserve" text-anchor="middle" x="130" y="-62.5" font-family="Helvetica,sans-Serif" font-size="10.00">DependentFixtureInterface</text>
</a>
</g>
</g>
<!-- Node3&#45;&gt;Node1 -->
<g id="edge2_Node000001_Node000003" class="edge">
<title>Node3&#45;&gt;Node1</title>
<g id="a_edge2_Node000001_Node000003"><a xlink:title=" ">
<path fill="none" stroke="#63b8ff" d="M112.57,-47.57C103.5,-38.5 92.78,-27.78 85.3,-20.3"/>
<polygon fill="#63b8ff" stroke="#63b8ff" points="109.98,-49.93 119.52,-54.52 114.93,-44.98 109.98,-49.93"/>
</a>
</g>
</g>
</g>
</svg>
