<?xml version="1.0" encoding="UTF-8" standalone="no"?>
<!DOCTYPE svg PUBLIC "-//W3C//DTD SVG 1.1//EN"
 "http://www.w3.org/Graphics/SVG/1.1/DTD/svg11.dtd">
<!-- Generated by graphviz version 14.0.2 (20251019.1705)
 -->
<!-- Title: Graphical Class Hierarchy Pages: 1 -->
<svg width="180pt" height="290pt"
 viewBox="0.00 0.00 180.00 290.00" xmlns="http://www.w3.org/2000/svg" xmlns:xlink="http://www.w3.org/1999/xlink">
<g id="graph0" class="graph" transform="scale(1 1) rotate(0) translate(4 286)">
<title>Graphical Class Hierarchy</title>
<!-- Node0 -->
<g id="Node000000" class="node">
<title>Node0</title>
<g id="a_Node000000"><a xlink:title=" ">
<polygon fill="#e0e0e0" stroke="#999999" points="38.5,-151 0,-151 0,-131 38.5,-131 38.5,-151"/>
<text xml:space="preserve" text-anchor="middle" x="19.25" y="-137.5" font-family="Helvetica,sans-Serif" font-size="10.00">Voter</text>
</a>
</g>
</g>
<!-- Node1 -->
<g id="Node000001" class="node">
<title>Node1</title>
<g id="a_Node000001"><a xlink:href="class_app_1_1_security_1_1_voter_1_1_groupe_voter.html" target="_top" xlink:title=" ">
<polygon fill="white" stroke="#666666" points="172.25,-282 74.5,-282 74.5,-250 172.25,-250 172.25,-282"/>
<text xml:space="preserve" text-anchor="start" x="82.5" y="-268.5" font-family="Helvetica,sans-Serif" font-size="10.00">App\Security\Voter</text>
<text xml:space="preserve" text-anchor="middle" x="123.38" y="-256.5" font-family="Helvetica,sans-Serif" font-size="10.00">\GroupeVoter</text>
</a>
</g>
</g>
<!-- Node0&#45;&gt;Node1 -->
<g id="edge44_Node000000_Node000001" class="edge">
<title>Node0&#45;&gt;Node1</title>
<g id="a_edge44_Node000000_Node000001"><a xlink:title=" ">
<path fill="none" stroke="#63b8ff" d="M27.47,-162.13C35.87,-184.12 51.58,-218.44 74.5,-241 77.71,-244.16 81.4,-247.01 85.27,-249.56"/>
<polygon fill="#63b8ff" stroke="#63b8ff" points="30.77,-160.96 24.07,-152.75 24.19,-163.35 30.77,-160.96"/>
</a>
</g>
</g>
<!-- Node2 -->
<g id="Node000002" class="node">
<title>Node2</title>
<g id="a_Node000002"><a xlink:href="class_app_1_1_security_1_1_voter_1_1_lieu_voter.html" target="_top" xlink:title=" ">
<polygon fill="white" stroke="#666666" points="172.25,-232 74.5,-232 74.5,-200 172.25,-200 172.25,-232"/>
<text xml:space="preserve" text-anchor="start" x="82.5" y="-218.5" font-family="Helvetica,sans-Serif" font-size="10.00">App\Security\Voter</text>
<text xml:space="preserve" text-anchor="middle" x="123.38" y="-206.5" font-family="Helvetica,sans-Serif" font-size="10.00">\LieuVoter</text>
</a>
</g>
</g>
<!-- Node0&#45;&gt;Node2 -->
<g id="edge45_Node000000_Node000002" class="edge">
<title>Node0&#45;&gt;Node2</title>
<g id="a_edge45_Node000000_Node000002"><a xlink:title=" ">
<path fill="none" stroke="#63b8ff" d="M37.97,-159.57C48.1,-169.59 61.37,-181.77 74.5,-191 78.8,-194.02 83.5,-196.92 88.23,-199.6"/>
<polygon fill="#63b8ff" stroke="#63b8ff" points="40.53,-157.19 31.02,-152.52 35.55,-162.1 40.53,-157.19"/>
</a>
</g>
</g>
<!-- Node3 -->
<g id="Node000003" class="node">
<title>Node3</title>
<g id="a_Node000003"><a xlink:href="class_app_1_1_security_1_1_voter_1_1_site_voter.html" target="_top" xlink:title=" ">
<polygon fill="white" stroke="#666666" points="172.25,-182 74.5,-182 74.5,-150 172.25,-150 172.25,-182"/>
<text xml:space="preserve" text-anchor="start" x="82.5" y="-168.5" font-family="Helvetica,sans-Serif" font-size="10.00">App\Security\Voter</text>
<text xml:space="preserve" text-anchor="middle" x="123.38" y="-156.5" font-family="Helvetica,sans-Serif" font-size="10.00">\SiteVoter</text>
</a>
</g>
</g>
<!-- Node0&#45;&gt;Node3 -->
<g id="edge46_Node000000_Node000003" class="edge">
<title>Node0&#45;&gt;Node3</title>
<g id="a_edge46_Node000000_Node000003"><a xlink:title=" ">
<path fill="none" stroke="#63b8ff" d="M49.92,-148.26C57.6,-150.14 66.07,-152.22 74.43,-154.26"/>
<polygon fill="#63b8ff" stroke="#63b8ff" points="51,-144.92 40.45,-145.95 49.33,-151.72 51,-144.92"/>
</a>
</g>
</g>
<!-- Node4 -->
<g id="Node000004" class="node">
<title>Node4</title>
<g id="a_Node000004"><a xlink:href="class_app_1_1_security_1_1_voter_1_1_sortie_voter.html" target="_top" xlink:title=" ">
<polygon fill="white" stroke="#666666" points="172.25,-132 74.5,-132 74.5,-100 172.25,-100 172.25,-132"/>
<text xml:space="preserve" text-anchor="start" x="82.5" y="-118.5" font-family="Helvetica,sans-Serif" font-size="10.00">App\Security\Voter</text>
<text xml:space="preserve" text-anchor="middle" x="123.38" y="-106.5" font-family="Helvetica,sans-Serif" font-size="10.00">\SortieVoter</text>
</a>
</g>
</g>
<!-- Node0&#45;&gt;Node4 -->
<g id="edge47_Node000000_Node000004" class="edge">
<title>Node0&#45;&gt;Node4</title>
<g id="a_edge47_Node000000_Node000004"><a xlink:title=" ">
<path fill="none" stroke="#63b8ff" d="M49.92,-133.74C57.6,-131.86 66.07,-129.78 74.43,-127.74"/>
<polygon fill="#63b8ff" stroke="#63b8ff" points="49.33,-130.28 40.45,-136.05 51,-137.08 49.33,-130.28"/>
</a>
</g>
</g>
<!-- Node5 -->
<g id="Node000005" class="node">
<title>Node5</title>
<g id="a_Node000005"><a xlink:href="class_app_1_1_security_1_1_voter_1_1_user_voter.html" target="_top" xlink:title=" ">
<polygon fill="white" stroke="#666666" points="172.25,-82 74.5,-82 74.5,-50 172.25,-50 172.25,-82"/>
<text xml:space="preserve" text-anchor="start" x="82.5" y="-68.5" font-family="Helvetica,sans-Serif" font-size="10.00">App\Security\Voter</text>
<text xml:space="preserve" text-anchor="middle" x="123.38" y="-56.5" font-family="Helvetica,sans-Serif" font-size="10.00">\UserVoter</text>
</a>
</g>
</g>
<!-- Node0&#45;&gt;Node5 -->
<g id="edge48_Node000000_Node000005" class="edge">
<title>Node0&#45;&gt;Node5</title>
<g id="a_edge48_Node000000_Node000005"><a xlink:title=" ">
<path fill="none" stroke="#63b8ff" d="M37.97,-122.43C48.1,-112.41 61.37,-100.23 74.5,-91 78.8,-87.98 83.5,-85.08 88.23,-82.4"/>
<polygon fill="#63b8ff" stroke="#63b8ff" points="35.55,-119.9 31.02,-129.48 40.53,-124.81 35.55,-119.9"/>
</a>
</g>
</g>
<!-- Node6 -->
<g id="Node000006" class="node">
<title>Node6</title>
<g id="a_Node000006"><a xlink:href="class_app_1_1_security_1_1_voter_1_1_ville_voter.html" target="_top" xlink:title=" ">
<polygon fill="white" stroke="#666666" points="172.25,-32 74.5,-32 74.5,0 172.25,0 172.25,-32"/>
<text xml:space="preserve" text-anchor="start" x="82.5" y="-18.5" font-family="Helvetica,sans-Serif" font-size="10.00">App\Security\Voter</text>
<text xml:space="preserve" text-anchor="middle" x="123.38" y="-6.5" font-family="Helvetica,sans-Serif" font-size="10.00">\VilleVoter</text>
</a>
</g>
</g>
<!-- Node0&#45;&gt;Node6 -->
<g id="edge49_Node000000_Node000006" class="edge">
<title>Node0&#45;&gt;Node6</title>
<g id="a_edge49_Node000000_Node000006"><a xlink:title=" ">
<path fill="none" stroke="#63b8ff" d="M27.47,-119.87C35.87,-97.88 51.58,-63.56 74.5,-41 77.71,-37.84 81.4,-34.99 85.27,-32.44"/>
<polygon fill="#63b8ff" stroke="#63b8ff" points="24.19,-118.65 24.07,-129.25 30.77,-121.04 24.19,-118.65"/>
</a>
</g>
</g>
</g>
</svg>
