<?xml version="1.0" encoding="UTF-8" standalone="no"?>
<!DOCTYPE svg PUBLIC "-//W3C//DTD SVG 1.1//EN"
 "http://www.w3.org/Graphics/SVG/1.1/DTD/svg11.dtd">
<!-- Generated by graphviz version 14.0.2 (20251019.1705)
 -->
<!-- Title: Graphical Class Hierarchy Pages: 1 -->
<svg width="270pt" height="78pt"
 viewBox="0.00 0.00 270.00 78.00" xmlns="http://www.w3.org/2000/svg" xmlns:xlink="http://www.w3.org/1999/xlink">
<g id="graph0" class="graph" transform="scale(1 1) rotate(0) translate(4 74)">
<title>Graphical Class Hierarchy</title>
<!-- Node0 -->
<g id="Node000000" class="node">
<title>Node0</title>
<g id="a_Node000000"><a xlink:title=" ">
<polygon fill="#e0e0e0" stroke="#999999" points="140.5,-70 0,-70 0,-38 140.5,-38 140.5,-70"/>
<text xml:space="preserve" text-anchor="start" x="8" y="-56.5" font-family="Helvetica,sans-Serif" font-size="10.00">PasswordAuthenticatedUser</text>
<text xml:space="preserve" text-anchor="middle" x="70.25" y="-44.5" font-family="Helvetica,sans-Serif" font-size="10.00">Interface</text>
</a>
</g>
</g>
<!-- Node1 -->
<g id="Node000001" class="node">
<title>Node1</title>
<g id="a_Node000001"><a xlink:href="class_app_1_1_entity_1_1_user.html" target="_top" xlink:title=" ">
<polygon fill="white" stroke="#666666" points="262.25,-42 176.5,-42 176.5,-22 262.25,-22 262.25,-42"/>
<text xml:space="preserve" text-anchor="middle" x="219.38" y="-28.5" font-family="Helvetica,sans-Serif" font-size="10.00">App\Entity\User</text>
</a>
</g>
</g>
<!-- Node0&#45;&gt;Node1 -->
<g id="edge29_Node000000_Node000001" class="edge">
<title>Node0&#45;&gt;Node1</title>
<g id="a_edge29_Node000000_Node000001"><a xlink:title=" ">
<path fill="none" stroke="#63b8ff" d="M152.22,-41.89C160.46,-40.66 168.58,-39.45 176.15,-38.31"/>
<polygon fill="#63b8ff" stroke="#63b8ff" points="151.8,-38.42 142.43,-43.36 152.84,-45.34 151.8,-38.42"/>
</a>
</g>
</g>
<!-- Node2 -->
<g id="Node000002" class="node">
<title>Node2</title>
<g id="a_Node000002"><a xlink:title=" ">
<polygon fill="#e0e0e0" stroke="#999999" points="107.88,-20 32.63,-20 32.63,0 107.88,0 107.88,-20"/>
<text xml:space="preserve" text-anchor="middle" x="70.25" y="-6.5" font-family="Helvetica,sans-Serif" font-size="10.00">UserInterface</text>
</a>
</g>
</g>
<!-- Node2&#45;&gt;Node1 -->
<g id="edge30_Node000002_Node000001" class="edge">
<title>Node2&#45;&gt;Node1</title>
<g id="a_edge30_Node000002_Node000001"><a xlink:title=" ">
<path fill="none" stroke="#63b8ff" d="M119.34,-17.19C137.65,-19.93 158.37,-23.03 176.11,-25.68"/>
<polygon fill="#63b8ff" stroke="#63b8ff" points="119.9,-13.74 109.49,-15.72 118.87,-20.66 119.9,-13.74"/>
</a>
</g>
</g>
</g>
</svg>
