<?xml version="1.0" encoding="UTF-8" standalone="no"?>
<!DOCTYPE svg PUBLIC "-//W3C//DTD SVG 1.1//EN"
 "http://www.w3.org/Graphics/SVG/1.1/DTD/svg11.dtd">
<!-- Generated by graphviz version 14.0.2 (20251019.1705)
 -->
<!-- Title: Graphical Class Hierarchy Pages: 1 -->
<svg width="332pt" height="180pt"
 viewBox="0.00 0.00 332.00 180.00" xmlns="http://www.w3.org/2000/svg" xmlns:xlink="http://www.w3.org/1999/xlink">
<g id="graph0" class="graph" transform="scale(1 1) rotate(0) translate(4 176)">
<title>Graphical Class Hierarchy</title>
<!-- Node0 -->
<g id="Node000000" class="node">
<title>Node0</title>
<g id="a_Node000000"><a xlink:title=" ">
<polygon fill="#e0e0e0" stroke="#999999" points="131.5,-134 0,-134 0,-114 131.5,-114 131.5,-134"/>
<text xml:space="preserve" text-anchor="middle" x="65.75" y="-120.5" font-family="Helvetica,sans-Serif" font-size="10.00">DependentFixtureInterface</text>
</a>
</g>
</g>
<!-- Node1 -->
<g id="Node000001" class="node">
<title>Node1</title>
<g id="a_Node000001"><a xlink:href="class_app_1_1_data_fixtures_1_1_lieu_fixtures.html" target="_top" xlink:title=" ">
<polygon fill="white" stroke="#666666" points="320,-172 171.25,-172 171.25,-152 320,-152 320,-172"/>
<text xml:space="preserve" text-anchor="middle" x="245.63" y="-158.5" font-family="Helvetica,sans-Serif" font-size="10.00">App\DataFixtures\LieuFixtures</text>
</a>
</g>
</g>
<!-- Node0&#45;&gt;Node1 -->
<g id="edge21_Node000000_Node000001" class="edge">
<title>Node0&#45;&gt;Node1</title>
<g id="a_edge21_Node000000_Node000001"><a xlink:title=" ">
<path fill="none" stroke="#63b8ff" d="M126.91,-136.85C149.31,-141.64 174.44,-147.01 195.71,-151.55"/>
<polygon fill="#63b8ff" stroke="#63b8ff" points="127.82,-133.47 117.31,-134.8 126.35,-140.31 127.82,-133.47"/>
</a>
</g>
</g>
<!-- Node4 -->
<g id="Node000004" class="node">
<title>Node4</title>
<g id="a_Node000004"><a xlink:href="class_app_1_1_data_fixtures_1_1_sortie_fixtures.html" target="_top" xlink:title=" ">
<polygon fill="white" stroke="#666666" points="323.75,-134 167.5,-134 167.5,-114 323.75,-114 323.75,-134"/>
<text xml:space="preserve" text-anchor="middle" x="245.63" y="-120.5" font-family="Helvetica,sans-Serif" font-size="10.00">App\DataFixtures\SortieFixtures</text>
</a>
</g>
</g>
<!-- Node0&#45;&gt;Node4 -->
<g id="edge22_Node000000_Node000004" class="edge">
<title>Node0&#45;&gt;Node4</title>
<g id="a_edge22_Node000000_Node000004"><a xlink:title=" ">
<path fill="none" stroke="#63b8ff" d="M143.35,-124C151.2,-124 159.18,-124 167.04,-124"/>
<polygon fill="#63b8ff" stroke="#63b8ff" points="143.49,-120.5 133.49,-124 143.49,-127.5 143.49,-120.5"/>
</a>
</g>
</g>
<!-- Node5 -->
<g id="Node000005" class="node">
<title>Node5</title>
<g id="a_Node000005"><a xlink:href="class_app_1_1_data_fixtures_1_1_user_fixtures.html" target="_top" xlink:title=" ">
<polygon fill="white" stroke="#666666" points="321.5,-96 169.75,-96 169.75,-76 321.5,-76 321.5,-96"/>
<text xml:space="preserve" text-anchor="middle" x="245.63" y="-82.5" font-family="Helvetica,sans-Serif" font-size="10.00">App\DataFixtures\UserFixtures</text>
</a>
</g>
</g>
<!-- Node0&#45;&gt;Node5 -->
<g id="edge23_Node000000_Node000005" class="edge">
<title>Node0&#45;&gt;Node5</title>
<g id="a_edge23_Node000000_Node000005"><a xlink:title=" ">
<path fill="none" stroke="#63b8ff" d="M126.91,-111.15C149.31,-106.36 174.44,-100.99 195.71,-96.45"/>
<polygon fill="#63b8ff" stroke="#63b8ff" points="126.35,-107.69 117.31,-113.2 127.82,-114.53 126.35,-107.69"/>
</a>
</g>
</g>
<!-- Node2 -->
<g id="Node000002" class="node">
<title>Node2</title>
<g id="a_Node000002"><a xlink:title=" ">
<polygon fill="#e0e0e0" stroke="#999999" points="88.75,-96 42.75,-96 42.75,-76 88.75,-76 88.75,-96"/>
<text xml:space="preserve" text-anchor="middle" x="65.75" y="-82.5" font-family="Helvetica,sans-Serif" font-size="10.00">Fixture</text>
</a>
</g>
</g>
<!-- Node2&#45;&gt;Node1 -->
<g id="edge24_Node000002_Node000001" class="edge">
<title>Node2&#45;&gt;Node1</title>
<g id="a_edge24_Node000002_Node000001"><a xlink:title=" ">
<path fill="none" stroke="#63b8ff" d="M100.19,-92.23C110.7,-95.1 122.03,-99.21 131.5,-105 151.35,-117.14 147.39,-131.3 167.5,-143 173.46,-146.47 180.03,-149.31 186.75,-151.63"/>
<polygon fill="#63b8ff" stroke="#63b8ff" points="101.24,-88.88 90.7,-89.92 99.59,-95.68 101.24,-88.88"/>
</a>
</g>
</g>
<!-- Node2&#45;&gt;Node4 -->
<g id="edge26_Node000002_Node000004" class="edge">
<title>Node2&#45;&gt;Node4</title>
<g id="a_edge26_Node000002_Node000004"><a xlink:title=" ">
<path fill="none" stroke="#63b8ff" d="M100.05,-93.11C126.95,-98.86 165.2,-107.03 195.6,-113.53"/>
<polygon fill="#63b8ff" stroke="#63b8ff" points="100.91,-89.72 90.4,-91.05 99.45,-96.56 100.91,-89.72"/>
</a>
</g>
</g>
<!-- Node2&#45;&gt;Node5 -->
<g id="edge27_Node000002_Node000005" class="edge">
<title>Node2&#45;&gt;Node5</title>
<g id="a_edge27_Node000002_Node000005"><a xlink:title=" ">
<path fill="none" stroke="#63b8ff" d="M100.29,-86C119.9,-86 145.48,-86 169.65,-86"/>
<polygon fill="#63b8ff" stroke="#63b8ff" points="100.43,-82.5 90.43,-86 100.43,-89.5 100.43,-82.5"/>
</a>
</g>
</g>
<!-- Node3 -->
<g id="Node000003" class="node">
<title>Node3</title>
<g id="a_Node000003"><a xlink:href="class_app_1_1_data_fixtures_1_1_site_fixtures.html" target="_top" xlink:title=" ">
<polygon fill="white" stroke="#666666" points="319.63,-20 171.63,-20 171.63,0 319.63,0 319.63,-20"/>
<text xml:space="preserve" text-anchor="middle" x="245.63" y="-6.5" font-family="Helvetica,sans-Serif" font-size="10.00">App\DataFixtures\SiteFixtures</text>
</a>
</g>
</g>
<!-- Node2&#45;&gt;Node3 -->
<g id="edge25_Node000002_Node000003" class="edge">
<title>Node2&#45;&gt;Node3</title>
<g id="a_edge25_Node000002_Node000003"><a xlink:title=" ">
<path fill="none" stroke="#63b8ff" d="M91.62,-69.37C111.45,-56.76 140.3,-39.81 167.5,-29 175.83,-25.69 184.9,-22.84 193.8,-20.42"/>
<polygon fill="#63b8ff" stroke="#63b8ff" points="89.9,-66.32 83.4,-74.7 93.7,-72.2 89.9,-66.32"/>
</a>
</g>
</g>
<!-- Node6 -->
<g id="Node000006" class="node">
<title>Node6</title>
<g id="a_Node000006"><a xlink:href="class_app_1_1_data_fixtures_1_1_ville_fixtures.html" target="_top" xlink:title=" ">
<polygon fill="white" stroke="#666666" points="320.38,-58 170.88,-58 170.88,-38 320.38,-38 320.38,-58"/>
<text xml:space="preserve" text-anchor="middle" x="245.63" y="-44.5" font-family="Helvetica,sans-Serif" font-size="10.00">App\DataFixtures\VilleFixtures</text>
</a>
</g>
</g>
<!-- Node2&#45;&gt;Node6 -->
<g id="edge28_Node000002_Node000006" class="edge">
<title>Node2&#45;&gt;Node6</title>
<g id="a_edge28_Node000002_Node000006"><a xlink:title=" ">
<path fill="none" stroke="#63b8ff" d="M100.05,-78.89C126.95,-73.14 165.2,-64.97 195.6,-58.47"/>
<polygon fill="#63b8ff" stroke="#63b8ff" points="99.45,-75.44 90.4,-80.95 100.91,-82.28 99.45,-75.44"/>
</a>
</g>
</g>
</g>
</svg>
