<?xml version="1.0" encoding="UTF-8" standalone="no"?>
<!DOCTYPE svg PUBLIC "-//W3C//DTD SVG 1.1//EN"
 "http://www.w3.org/Graphics/SVG/1.1/DTD/svg11.dtd">
<!-- Generated by graphviz version 14.0.2 (20251019.1705)
 -->
<!-- Title: Graphical Class Hierarchy Pages: 1 -->
<svg width="379pt" height="356pt"
 viewBox="0.00 0.00 379.00 356.00" xmlns="http://www.w3.org/2000/svg" xmlns:xlink="http://www.w3.org/1999/xlink">
<g id="graph0" class="graph" transform="scale(1 1) rotate(0) translate(4 352)">
<title>Graphical Class Hierarchy</title>
<!-- Node0 -->
<g id="Node000000" class="node">
<title>Node0</title>
<g id="a_Node000000"><a xlink:title=" ">
<polygon fill="#e0e0e0" stroke="#999999" points="153.63,-348 16.13,-348 16.13,-328 153.63,-328 153.63,-348"/>
<text xml:space="preserve" text-anchor="middle" x="84.88" y="-334.5" font-family="Helvetica,sans-Serif" font-size="10.00">PasswordUpgraderInterface</text>
</a>
</g>
</g>
<!-- Node1 -->
<g id="Node000001" class="node">
<title>Node1</title>
<g id="a_Node000001"><a xlink:href="class_app_1_1_repository_1_1_user_repository.html" target="_top" xlink:title="&lt;User&gt;">
<polygon fill="white" stroke="#666666" points="365.75,-348 211,-348 211,-328 365.75,-328 365.75,-348"/>
<text xml:space="preserve" text-anchor="middle" x="288.38" y="-334.5" font-family="Helvetica,sans-Serif" font-size="10.00">App\Repository\UserRepository</text>
</a>
</g>
</g>
<!-- Node0&#45;&gt;Node1 -->
<g id="edge31_Node000000_Node000001" class="edge">
<title>Node0&#45;&gt;Node1</title>
<g id="a_edge31_Node000000_Node000001"><a xlink:title=" ">
<path fill="none" stroke="#63b8ff" d="M165.33,-338C180.22,-338 195.75,-338 210.56,-338"/>
<polygon fill="#63b8ff" stroke="#63b8ff" points="165.61,-334.5 155.61,-338 165.61,-341.5 165.61,-334.5"/>
</a>
</g>
</g>
<!-- Node8 -->
<g id="Node000008" class="node">
<title>Node8</title>
<g id="a_Node000008"><a xlink:title=" ">
<polygon fill="#e0e0e0" stroke="#999999" points="169.75,-310 0,-310 0,-278 169.75,-278 169.75,-310"/>
<text xml:space="preserve" text-anchor="start" x="8" y="-296.5" font-family="Helvetica,sans-Serif" font-size="10.00">ResetPasswordRequestRepository</text>
<text xml:space="preserve" text-anchor="middle" x="84.88" y="-284.5" font-family="Helvetica,sans-Serif" font-size="10.00">Interface</text>
</a>
</g>
</g>
<!-- Node7 -->
<g id="Node000007" class="node">
<title>Node7</title>
<g id="a_Node000007"><a xlink:href="class_app_1_1_repository_1_1_reset_password_request_repository.html" target="_top" xlink:title="&lt;ResetPasswordRequest&gt;">
<polygon fill="white" stroke="#666666" points="366.5,-310 210.25,-310 210.25,-278 366.5,-278 366.5,-310"/>
<text xml:space="preserve" text-anchor="start" x="218.25" y="-296.5" font-family="Helvetica,sans-Serif" font-size="10.00">App\Repository\ResetPassword</text>
<text xml:space="preserve" text-anchor="middle" x="288.38" y="-284.5" font-family="Helvetica,sans-Serif" font-size="10.00">RequestRepository</text>
</a>
</g>
</g>
<!-- Node8&#45;&gt;Node7 -->
<g id="edge32_Node000008_Node000007" class="edge">
<title>Node8&#45;&gt;Node7</title>
<g id="a_edge32_Node000008_Node000007"><a xlink:title=" ">
<path fill="none" stroke="#63b8ff" d="M181.65,-294C191.1,-294 200.62,-294 209.86,-294"/>
<polygon fill="#63b8ff" stroke="#63b8ff" points="181.68,-290.5 171.68,-294 181.68,-297.5 181.68,-290.5"/>
</a>
</g>
</g>
<!-- Node2 -->
<g id="Node000002" class="node">
<title>Node2</title>
<g id="a_Node000002"><a xlink:title=" ">
<polygon fill="#e0e0e0" stroke="#999999" points="145.75,-178 24,-178 24,-158 145.75,-158 145.75,-178"/>
<text xml:space="preserve" text-anchor="middle" x="84.88" y="-164.5" font-family="Helvetica,sans-Serif" font-size="10.00">ServiceEntityRepository</text>
</a>
</g>
</g>
<!-- Node2&#45;&gt;Node1 -->
<g id="edge40_Node000002_Node000001" class="edge">
<title>Node2&#45;&gt;Node1</title>
<g id="a_edge40_Node000002_Node000001"><a xlink:title=" ">
<path fill="none" stroke="#63b8ff" d="M102.26,-186.93C119.47,-206.99 147.11,-239.74 169.75,-269 186.51,-290.66 182.96,-303.82 205.75,-319 210.96,-322.47 216.72,-325.31 222.7,-327.63"/>
<polygon fill="#63b8ff" stroke="#63b8ff" points="105.1,-184.86 95.92,-179.57 99.79,-189.43 105.1,-184.86"/>
</a>
</g>
</g>
<!-- Node2&#45;&gt;Node7 -->
<g id="edge37_Node000002_Node000007" class="edge">
<title>Node2&#45;&gt;Node7</title>
<g id="a_edge37_Node000002_Node000007"><a xlink:title=" ">
<path fill="none" stroke="#63b8ff" d="M103.13,-186.54C125,-209.04 164.82,-246.71 205.75,-269 211.61,-272.19 217.93,-275.03 224.37,-277.55"/>
<polygon fill="#63b8ff" stroke="#63b8ff" points="105.89,-184.37 96.45,-179.55 100.83,-189.2 105.89,-184.37"/>
</a>
</g>
</g>
<!-- Node3 -->
<g id="Node000003" class="node">
<title>Node3</title>
<g id="a_Node000003"><a xlink:href="class_app_1_1_repository_1_1_etat_repository.html" target="_top" xlink:title="&lt;Etat&gt;">
<polygon fill="white" stroke="#666666" points="364.25,-20 212.5,-20 212.5,0 364.25,0 364.25,-20"/>
<text xml:space="preserve" text-anchor="middle" x="288.38" y="-6.5" font-family="Helvetica,sans-Serif" font-size="10.00">App\Repository\EtatRepository</text>
</a>
</g>
</g>
<!-- Node2&#45;&gt;Node3 -->
<g id="edge33_Node000002_Node000003" class="edge">
<title>Node2&#45;&gt;Node3</title>
<g id="a_edge33_Node000002_Node000003"><a xlink:title=" ">
<path fill="none" stroke="#63b8ff" d="M97.27,-148.09C115.87,-117.48 155.75,-59.24 205.75,-29 211.48,-25.54 217.78,-22.7 224.27,-20.39"/>
<polygon fill="#63b8ff" stroke="#63b8ff" points="94.45,-145.98 92.37,-156.37 100.47,-149.55 94.45,-145.98"/>
</a>
</g>
</g>
<!-- Node4 -->
<g id="Node000004" class="node">
<title>Node4</title>
<g id="a_Node000004"><a xlink:href="class_app_1_1_repository_1_1_groupe_repository.html" target="_top" xlink:title="&lt;Groupe&gt;">
<polygon fill="white" stroke="#666666" points="371,-260 205.75,-260 205.75,-240 371,-240 371,-260"/>
<text xml:space="preserve" text-anchor="middle" x="288.38" y="-246.5" font-family="Helvetica,sans-Serif" font-size="10.00">App\Repository\GroupeRepository</text>
</a>
</g>
</g>
<!-- Node2&#45;&gt;Node4 -->
<g id="edge34_Node000002_Node000004" class="edge">
<title>Node2&#45;&gt;Node4</title>
<g id="a_edge34_Node000002_Node000004"><a xlink:title=" ">
<path fill="none" stroke="#63b8ff" d="M111.96,-184.21C135.66,-198.32 171.97,-218.43 205.75,-231 214.61,-234.3 224.24,-237.15 233.67,-239.56"/>
<polygon fill="#63b8ff" stroke="#63b8ff" points="113.98,-181.34 103.61,-179.17 110.36,-187.33 113.98,-181.34"/>
</a>
</g>
</g>
<!-- Node5 -->
<g id="Node000005" class="node">
<title>Node5</title>
<g id="a_Node000005"><a xlink:href="class_app_1_1_repository_1_1_lieu_repository.html" target="_top" xlink:title="&lt;Lieu&gt;">
<polygon fill="white" stroke="#666666" points="364.25,-222 212.5,-222 212.5,-202 364.25,-202 364.25,-222"/>
<text xml:space="preserve" text-anchor="middle" x="288.38" y="-208.5" font-family="Helvetica,sans-Serif" font-size="10.00">App\Repository\LieuRepository</text>
</a>
</g>
</g>
<!-- Node2&#45;&gt;Node5 -->
<g id="edge35_Node000002_Node000005" class="edge">
<title>Node2&#45;&gt;Node5</title>
<g id="a_edge35_Node000002_Node000005"><a xlink:title=" ">
<path fill="none" stroke="#63b8ff" d="M145.07,-180.93C175.1,-187.48 211.11,-195.35 239.39,-201.52"/>
<polygon fill="#63b8ff" stroke="#63b8ff" points="145.88,-177.52 135.36,-178.81 144.39,-184.36 145.88,-177.52"/>
</a>
</g>
</g>
<!-- Node6 -->
<g id="Node000006" class="node">
<title>Node6</title>
<g id="a_Node000006"><a xlink:href="class_app_1_1_repository_1_1_participant_repository.html" target="_top" xlink:title="&lt;Participant&gt;">
<polygon fill="white" stroke="#666666" points="354.88,-184 221.88,-184 221.88,-152 354.88,-152 354.88,-184"/>
<text xml:space="preserve" text-anchor="start" x="229.88" y="-170.5" font-family="Helvetica,sans-Serif" font-size="10.00">App\Repository\Participant</text>
<text xml:space="preserve" text-anchor="middle" x="288.38" y="-158.5" font-family="Helvetica,sans-Serif" font-size="10.00">Repository</text>
</a>
</g>
</g>
<!-- Node2&#45;&gt;Node6 -->
<g id="edge36_Node000002_Node000006" class="edge">
<title>Node2&#45;&gt;Node6</title>
<g id="a_edge36_Node000002_Node000006"><a xlink:title=" ">
<path fill="none" stroke="#63b8ff" d="M157.44,-168C178.32,-168 201.02,-168 221.52,-168"/>
<polygon fill="#63b8ff" stroke="#63b8ff" points="157.57,-164.5 147.57,-168 157.57,-171.5 157.57,-164.5"/>
</a>
</g>
</g>
<!-- Node9 -->
<g id="Node000009" class="node">
<title>Node9</title>
<g id="a_Node000009"><a xlink:href="class_app_1_1_repository_1_1_site_repository.html" target="_top" xlink:title="&lt;Site&gt;">
<polygon fill="white" stroke="#666666" points="363.88,-134 212.88,-134 212.88,-114 363.88,-114 363.88,-134"/>
<text xml:space="preserve" text-anchor="middle" x="288.38" y="-120.5" font-family="Helvetica,sans-Serif" font-size="10.00">App\Repository\SiteRepository</text>
</a>
</g>
</g>
<!-- Node2&#45;&gt;Node9 -->
<g id="edge38_Node000002_Node000009" class="edge">
<title>Node2&#45;&gt;Node9</title>
<g id="a_edge38_Node000002_Node000009"><a xlink:title=" ">
<path fill="none" stroke="#63b8ff" d="M145.07,-155.07C175.1,-148.52 211.11,-140.65 239.39,-134.48"/>
<polygon fill="#63b8ff" stroke="#63b8ff" points="144.39,-151.64 135.36,-157.19 145.88,-158.48 144.39,-151.64"/>
</a>
</g>
</g>
<!-- Node10 -->
<g id="Node000010" class="node">
<title>Node10</title>
<g id="a_Node000010"><a xlink:href="class_app_1_1_repository_1_1_sortie_repository.html" target="_top" xlink:title="&lt;Sortie&gt;">
<polygon fill="white" stroke="#666666" points="368,-96 208.75,-96 208.75,-76 368,-76 368,-96"/>
<text xml:space="preserve" text-anchor="middle" x="288.38" y="-82.5" font-family="Helvetica,sans-Serif" font-size="10.00">App\Repository\SortieRepository</text>
</a>
</g>
</g>
<!-- Node2&#45;&gt;Node10 -->
<g id="edge39_Node000002_Node000010" class="edge">
<title>Node2&#45;&gt;Node10</title>
<g id="a_edge39_Node000002_Node000010"><a xlink:title=" ">
<path fill="none" stroke="#63b8ff" d="M111.96,-151.79C135.66,-137.68 171.97,-117.57 205.75,-105 214.61,-101.7 224.24,-98.85 233.67,-96.44"/>
<polygon fill="#63b8ff" stroke="#63b8ff" points="110.36,-148.67 103.61,-156.83 113.98,-154.66 110.36,-148.67"/>
</a>
</g>
</g>
<!-- Node11 -->
<g id="Node000011" class="node">
<title>Node11</title>
<g id="a_Node000011"><a xlink:href="class_app_1_1_repository_1_1_ville_repository.html" target="_top" xlink:title="&lt;Ville&gt;">
<polygon fill="white" stroke="#666666" points="364.63,-58 212.13,-58 212.13,-38 364.63,-38 364.63,-58"/>
<text xml:space="preserve" text-anchor="middle" x="288.38" y="-44.5" font-family="Helvetica,sans-Serif" font-size="10.00">App\Repository\VilleRepository</text>
</a>
</g>
</g>
<!-- Node2&#45;&gt;Node11 -->
<g id="edge41_Node000002_Node000011" class="edge">
<title>Node2&#45;&gt;Node11</title>
<g id="a_edge41_Node000002_Node000011"><a xlink:title=" ">
<path fill="none" stroke="#63b8ff" d="M102.55,-149.34C124.1,-126.42 163.86,-87.98 205.75,-67 212.64,-63.55 220.18,-60.71 227.8,-58.38"/>
<polygon fill="#63b8ff" stroke="#63b8ff" points="100.19,-146.74 95.99,-156.46 105.34,-151.48 100.19,-146.74"/>
</a>
</g>
</g>
</g>
</svg>
