<?xml version="1.0" encoding="UTF-8" standalone="no"?>
<!DOCTYPE svg PUBLIC "-//W3C//DTD SVG 1.1//EN"
 "http://www.w3.org/Graphics/SVG/1.1/DTD/svg11.dtd">
<!-- Generated by graphviz version 14.0.2 (20251019.1705)
 -->
<!-- Title: Graphical Class Hierarchy Pages: 1 -->
<svg width="298pt" height="344pt"
 viewBox="0.00 0.00 298.00 344.00" xmlns="http://www.w3.org/2000/svg" xmlns:xlink="http://www.w3.org/1999/xlink">
<g id="graph0" class="graph" transform="scale(1 1) rotate(0) translate(4 340)">
<title>Graphical Class Hierarchy</title>
<!-- Node0 -->
<g id="Node000000" class="node">
<title>Node0</title>
<g id="a_Node000000"><a xlink:title=" ">
<polygon fill="#e0e0e0" stroke="#999999" points="94.75,-172 0,-172 0,-152 94.75,-152 94.75,-172"/>
<text xml:space="preserve" text-anchor="middle" x="47.38" y="-158.5" font-family="Helvetica,sans-Serif" font-size="10.00">AbstractController</text>
</a>
</g>
</g>
<!-- Node1 -->
<g id="Node000001" class="node">
<title>Node1</title>
<g id="a_Node000001"><a xlink:href="class_app_1_1_controller_1_1_groupe_controller.html" target="_top" xlink:title=" ">
<polygon fill="white" stroke="#666666" points="287.75,-336 133,-336 133,-316 287.75,-316 287.75,-336"/>
<text xml:space="preserve" text-anchor="middle" x="210.38" y="-322.5" font-family="Helvetica,sans-Serif" font-size="10.00">App\Controller\GroupeController</text>
</a>
</g>
</g>
<!-- Node0&#45;&gt;Node1 -->
<g id="edge1_Node000000_Node000001" class="edge">
<title>Node0&#45;&gt;Node1</title>
<g id="a_edge1_Node000000_Node000001"><a xlink:title=" ">
<path fill="none" stroke="#63b8ff" d="M54.38,-183.05C64.61,-214.94 88.51,-275.18 130.75,-307 135.35,-310.46 140.49,-313.31 145.89,-315.64"/>
<polygon fill="#63b8ff" stroke="#63b8ff" points="57.82,-182.32 51.56,-173.77 51.12,-184.36 57.82,-182.32"/>
</a>
</g>
</g>
<!-- Node2 -->
<g id="Node000002" class="node">
<title>Node2</title>
<g id="a_Node000002"><a xlink:href="class_app_1_1_controller_1_1_lieu_controller.html" target="_top" xlink:title=" ">
<polygon fill="white" stroke="#666666" points="281,-298 139.75,-298 139.75,-278 281,-278 281,-298"/>
<text xml:space="preserve" text-anchor="middle" x="210.38" y="-284.5" font-family="Helvetica,sans-Serif" font-size="10.00">App\Controller\LieuController</text>
</a>
</g>
</g>
<!-- Node0&#45;&gt;Node2 -->
<g id="edge2_Node000000_Node000002" class="edge">
<title>Node0&#45;&gt;Node2</title>
<g id="a_edge2_Node000000_Node000002"><a xlink:title=" ">
<path fill="none" stroke="#63b8ff" d="M58.51,-182.4C71.72,-206.84 97.16,-247.19 130.75,-269 136.05,-272.44 141.92,-275.26 147.99,-277.57"/>
<polygon fill="#63b8ff" stroke="#63b8ff" points="61.73,-181.02 54.01,-173.77 55.52,-184.25 61.73,-181.02"/>
</a>
</g>
</g>
<!-- Node3 -->
<g id="Node000003" class="node">
<title>Node3</title>
<g id="a_Node000003"><a xlink:href="class_app_1_1_controller_1_1_main_controller.html" target="_top" xlink:title=" ">
<polygon fill="white" stroke="#666666" points="282.5,-260 138.25,-260 138.25,-240 282.5,-240 282.5,-260"/>
<text xml:space="preserve" text-anchor="middle" x="210.38" y="-246.5" font-family="Helvetica,sans-Serif" font-size="10.00">App\Controller\MainController</text>
</a>
</g>
</g>
<!-- Node0&#45;&gt;Node3 -->
<g id="edge3_Node000000_Node000003" class="edge">
<title>Node0&#45;&gt;Node3</title>
<g id="a_edge3_Node000000_Node000003"><a xlink:title=" ">
<path fill="none" stroke="#63b8ff" d="M65.36,-180.36C80.91,-196.09 105.31,-218.17 130.75,-231 137.52,-234.42 144.93,-237.24 152.42,-239.56"/>
<polygon fill="#63b8ff" stroke="#63b8ff" points="68.18,-178.25 58.73,-173.47 63.14,-183.11 68.18,-178.25"/>
</a>
</g>
</g>
<!-- Node4 -->
<g id="Node000004" class="node">
<title>Node4</title>
<g id="a_Node000004"><a xlink:href="class_app_1_1_controller_1_1_reset_password_controller.html" target="_top" xlink:title=" ">
<polygon fill="white" stroke="#666666" points="285.88,-222 134.88,-222 134.88,-190 285.88,-190 285.88,-222"/>
<text xml:space="preserve" text-anchor="start" x="142.88" y="-208.5" font-family="Helvetica,sans-Serif" font-size="10.00">App\Controller\ResetPassword</text>
<text xml:space="preserve" text-anchor="middle" x="210.38" y="-196.5" font-family="Helvetica,sans-Serif" font-size="10.00">Controller</text>
</a>
</g>
</g>
<!-- Node0&#45;&gt;Node4 -->
<g id="edge4_Node000000_Node000004" class="edge">
<title>Node0&#45;&gt;Node4</title>
<g id="a_edge4_Node000000_Node000004"><a xlink:title=" ">
<path fill="none" stroke="#63b8ff" d="M97.45,-175.41C113.76,-179.87 132.1,-184.88 149.15,-189.54"/>
<polygon fill="#63b8ff" stroke="#63b8ff" points="98.56,-172.09 87.99,-172.83 96.71,-178.84 98.56,-172.09"/>
</a>
</g>
</g>
<!-- Node5 -->
<g id="Node000005" class="node">
<title>Node5</title>
<g id="a_Node000005"><a xlink:href="class_app_1_1_controller_1_1_security_controller.html" target="_top" xlink:title=" ">
<polygon fill="white" stroke="#666666" points="290,-172 130.75,-172 130.75,-152 290,-152 290,-172"/>
<text xml:space="preserve" text-anchor="middle" x="210.38" y="-158.5" font-family="Helvetica,sans-Serif" font-size="10.00">App\Controller\SecurityController</text>
</a>
</g>
</g>
<!-- Node0&#45;&gt;Node5 -->
<g id="edge5_Node000000_Node000005" class="edge">
<title>Node0&#45;&gt;Node5</title>
<g id="a_edge5_Node000000_Node000005"><a xlink:title=" ">
<path fill="none" stroke="#63b8ff" d="M106.22,-162C114.09,-162 122.28,-162 130.45,-162"/>
<polygon fill="#63b8ff" stroke="#63b8ff" points="106.46,-158.5 96.46,-162 106.46,-165.5 106.46,-158.5"/>
</a>
</g>
</g>
<!-- Node6 -->
<g id="Node000006" class="node">
<title>Node6</title>
<g id="a_Node000006"><a xlink:href="class_app_1_1_controller_1_1_site_controller.html" target="_top" xlink:title=" ">
<polygon fill="white" stroke="#666666" points="280.63,-134 140.13,-134 140.13,-114 280.63,-114 280.63,-134"/>
<text xml:space="preserve" text-anchor="middle" x="210.38" y="-120.5" font-family="Helvetica,sans-Serif" font-size="10.00">App\Controller\SiteController</text>
</a>
</g>
</g>
<!-- Node0&#45;&gt;Node6 -->
<g id="edge6_Node000000_Node000006" class="edge">
<title>Node0&#45;&gt;Node6</title>
<g id="a_edge6_Node000000_Node000006"><a xlink:title=" ">
<path fill="none" stroke="#63b8ff" d="M103.94,-148.88C123.93,-144.17 146.2,-138.91 165.1,-134.45"/>
<polygon fill="#63b8ff" stroke="#63b8ff" points="103.2,-145.46 94.27,-151.17 104.8,-152.28 103.2,-145.46"/>
</a>
</g>
</g>
<!-- Node7 -->
<g id="Node000007" class="node">
<title>Node7</title>
<g id="a_Node000007"><a xlink:href="class_app_1_1_controller_1_1_sortie_controller.html" target="_top" xlink:title=" ">
<polygon fill="white" stroke="#666666" points="284.75,-96 136,-96 136,-76 284.75,-76 284.75,-96"/>
<text xml:space="preserve" text-anchor="middle" x="210.38" y="-82.5" font-family="Helvetica,sans-Serif" font-size="10.00">App\Controller\SortieController</text>
</a>
</g>
</g>
<!-- Node0&#45;&gt;Node7 -->
<g id="edge7_Node000000_Node000007" class="edge">
<title>Node0&#45;&gt;Node7</title>
<g id="a_edge7_Node000000_Node000007"><a xlink:title=" ">
<path fill="none" stroke="#63b8ff" d="M68.83,-144.64C84.76,-131.94 107.93,-115.22 130.75,-105 138.31,-101.61 146.56,-98.78 154.79,-96.42"/>
<polygon fill="#63b8ff" stroke="#63b8ff" points="67.05,-141.57 61.52,-150.61 71.48,-147 67.05,-141.57"/>
</a>
</g>
</g>
<!-- Node8 -->
<g id="Node000008" class="node">
<title>Node8</title>
<g id="a_Node000008"><a xlink:href="class_app_1_1_controller_1_1_user_controller.html" target="_top" xlink:title=" ">
<polygon fill="white" stroke="#666666" points="282.5,-58 138.25,-58 138.25,-38 282.5,-38 282.5,-58"/>
<text xml:space="preserve" text-anchor="middle" x="210.38" y="-44.5" font-family="Helvetica,sans-Serif" font-size="10.00">App\Controller\UserController</text>
</a>
</g>
</g>
<!-- Node0&#45;&gt;Node8 -->
<g id="edge8_Node000000_Node000008" class="edge">
<title>Node0&#45;&gt;Node8</title>
<g id="a_edge8_Node000000_Node000008"><a xlink:title=" ">
<path fill="none" stroke="#63b8ff" d="M60.32,-141.96C74.39,-120.13 99.82,-85.83 130.75,-67 136.39,-63.57 142.61,-60.76 149,-58.45"/>
<polygon fill="#63b8ff" stroke="#63b8ff" points="57.46,-139.93 55.15,-150.27 63.4,-143.63 57.46,-139.93"/>
</a>
</g>
</g>
<!-- Node9 -->
<g id="Node000009" class="node">
<title>Node9</title>
<g id="a_Node000009"><a xlink:href="class_app_1_1_controller_1_1_ville_controller.html" target="_top" xlink:title=" ">
<polygon fill="white" stroke="#666666" points="281.38,-20 139.38,-20 139.38,0 281.38,0 281.38,-20"/>
<text xml:space="preserve" text-anchor="middle" x="210.38" y="-6.5" font-family="Helvetica,sans-Serif" font-size="10.00">App\Controller\VilleController</text>
</a>
</g>
</g>
<!-- Node0&#45;&gt;Node9 -->
<g id="edge9_Node000000_Node000009" class="edge">
<title>Node0&#45;&gt;Node9</title>
<g id="a_edge9_Node000000_Node000009"><a xlink:title=" ">
<path fill="none" stroke="#63b8ff" d="M55.51,-141.03C66.71,-111.35 91.31,-57.56 130.75,-29 135.53,-25.54 140.85,-22.71 146.42,-20.38"/>
<polygon fill="#63b8ff" stroke="#63b8ff" points="52.24,-139.77 52.15,-150.36 58.83,-142.14 52.24,-139.77"/>
</a>
</g>
</g>
</g>
</svg>
