<?xml version="1.0" encoding="UTF-8" standalone="no"?>
<!DOCTYPE svg PUBLIC "-//W3C//DTD SVG 1.1//EN"
 "http://www.w3.org/Graphics/SVG/1.1/DTD/svg11.dtd">
<!-- Generated by graphviz version 14.0.2 (20251019.1705)
 -->
<!-- Title: Graphical Class Hierarchy Pages: 1 -->
<svg width="300pt" height="344pt"
 viewBox="0.00 0.00 300.00 344.00" xmlns="http://www.w3.org/2000/svg" xmlns:xlink="http://www.w3.org/1999/xlink">
<g id="graph0" class="graph" transform="scale(1 1) rotate(0) translate(4 340)">
<title>Graphical Class Hierarchy</title>
<!-- Node0 -->
<g id="Node000000" class="node">
<title>Node0</title>
<g id="a_Node000000"><a xlink:title=" ">
<polygon fill="#e0e0e0" stroke="#999999" points="73.75,-172 0,-172 0,-152 73.75,-152 73.75,-172"/>
<text xml:space="preserve" text-anchor="middle" x="36.88" y="-158.5" font-family="Helvetica,sans-Serif" font-size="10.00">AbstractType</text>
</a>
</g>
</g>
<!-- Node1 -->
<g id="Node000001" class="node">
<title>Node1</title>
<g id="a_Node000001"><a xlink:href="class_app_1_1_form_1_1_change_password_form_type.html" target="_top" xlink:title=" ">
<polygon fill="white" stroke="#666666" points="292.25,-336 109.75,-336 109.75,-316 292.25,-316 292.25,-336"/>
<text xml:space="preserve" text-anchor="middle" x="201" y="-322.5" font-family="Helvetica,sans-Serif" font-size="10.00">App\Form\ChangePasswordFormType</text>
</a>
</g>
</g>
<!-- Node0&#45;&gt;Node1 -->
<g id="edge11_Node000000_Node000001" class="edge">
<title>Node0&#45;&gt;Node1</title>
<g id="a_edge11_Node000000_Node000001"><a xlink:title=" ">
<path fill="none" stroke="#63b8ff" d="M42.3,-183.57C50.08,-215.7 69.35,-275.71 109.75,-307 114.18,-310.43 119.09,-313.28 124.26,-315.64"/>
<polygon fill="#63b8ff" stroke="#63b8ff" points="45.73,-182.84 40.12,-173.85 38.9,-184.38 45.73,-182.84"/>
</a>
</g>
</g>
<!-- Node2 -->
<g id="Node000002" class="node">
<title>Node2</title>
<g id="a_Node000002"><a xlink:href="class_app_1_1_form_1_1_groupe_type.html" target="_top" xlink:title=" ">
<polygon fill="white" stroke="#666666" points="258.13,-298 143.88,-298 143.88,-278 258.13,-278 258.13,-298"/>
<text xml:space="preserve" text-anchor="middle" x="201" y="-284.5" font-family="Helvetica,sans-Serif" font-size="10.00">App\Form\GroupeType</text>
</a>
</g>
</g>
<!-- Node0&#45;&gt;Node2 -->
<g id="edge12_Node000000_Node000002" class="edge">
<title>Node0&#45;&gt;Node2</title>
<g id="a_edge12_Node000000_Node000002"><a xlink:title=" ">
<path fill="none" stroke="#63b8ff" d="M45.91,-182.51C56.63,-207.08 78.04,-247.61 109.75,-269 119.71,-275.72 131.57,-280.13 143.38,-283.01"/>
<polygon fill="#63b8ff" stroke="#63b8ff" points="49.26,-181.46 42.19,-173.57 42.8,-184.15 49.26,-181.46"/>
</a>
</g>
</g>
<!-- Node3 -->
<g id="Node000003" class="node">
<title>Node3</title>
<g id="a_Node000003"><a xlink:href="class_app_1_1_form_1_1_lieu_type.html" target="_top" xlink:title=" ">
<polygon fill="white" stroke="#666666" points="251.38,-260 150.63,-260 150.63,-240 251.38,-240 251.38,-260"/>
<text xml:space="preserve" text-anchor="middle" x="201" y="-246.5" font-family="Helvetica,sans-Serif" font-size="10.00">App\Form\LieuType</text>
</a>
</g>
</g>
<!-- Node0&#45;&gt;Node3 -->
<g id="edge13_Node000000_Node000003" class="edge">
<title>Node0&#45;&gt;Node3</title>
<g id="a_edge13_Node000000_Node000003"><a xlink:title=" ">
<path fill="none" stroke="#63b8ff" d="M52.65,-181.23C65.88,-197.06 86.7,-218.82 109.75,-231 122.21,-237.58 136.76,-241.89 150.51,-244.7"/>
<polygon fill="#63b8ff" stroke="#63b8ff" points="55.39,-179.05 46.39,-173.45 49.94,-183.44 55.39,-179.05"/>
</a>
</g>
</g>
<!-- Node4 -->
<g id="Node000004" class="node">
<title>Node4</title>
<g id="a_Node000004"><a xlink:href="class_app_1_1_form_1_1_reset_password_request_form_type.html" target="_top" xlink:title=" ">
<polygon fill="white" stroke="#666666" points="285.13,-222 116.88,-222 116.88,-190 285.13,-190 285.13,-222"/>
<text xml:space="preserve" text-anchor="start" x="124.88" y="-208.5" font-family="Helvetica,sans-Serif" font-size="10.00">App\Form\ResetPasswordRequest</text>
<text xml:space="preserve" text-anchor="middle" x="201" y="-196.5" font-family="Helvetica,sans-Serif" font-size="10.00">FormType</text>
</a>
</g>
</g>
<!-- Node0&#45;&gt;Node4 -->
<g id="edge14_Node000000_Node000004" class="edge">
<title>Node0&#45;&gt;Node4</title>
<g id="a_edge14_Node000000_Node000004"><a xlink:title=" ">
<path fill="none" stroke="#63b8ff" d="M84.65,-174.7C101.69,-179.32 121.21,-184.62 139.28,-189.52"/>
<polygon fill="#63b8ff" stroke="#63b8ff" points="85.88,-171.4 75.32,-172.16 84.05,-178.16 85.88,-171.4"/>
</a>
</g>
</g>
<!-- Node5 -->
<g id="Node000005" class="node">
<title>Node5</title>
<g id="a_Node000005"><a xlink:href="class_app_1_1_form_1_1_site_type.html" target="_top" xlink:title=" ">
<polygon fill="white" stroke="#666666" points="251,-172 151,-172 151,-152 251,-152 251,-172"/>
<text xml:space="preserve" text-anchor="middle" x="201" y="-158.5" font-family="Helvetica,sans-Serif" font-size="10.00">App\Form\SiteType</text>
</a>
</g>
</g>
<!-- Node0&#45;&gt;Node5 -->
<g id="edge15_Node000000_Node000005" class="edge">
<title>Node0&#45;&gt;Node5</title>
<g id="a_edge15_Node000000_Node000005"><a xlink:title=" ">
<path fill="none" stroke="#63b8ff" d="M85.18,-162C105.73,-162 129.81,-162 150.59,-162"/>
<polygon fill="#63b8ff" stroke="#63b8ff" points="85.37,-158.5 75.37,-162 85.37,-165.5 85.37,-158.5"/>
</a>
</g>
</g>
<!-- Node6 -->
<g id="Node000006" class="node">
<title>Node6</title>
<g id="a_Node000006"><a xlink:href="class_app_1_1_form_1_1_sortie_annulation_type.html" target="_top" xlink:title=" ">
<polygon fill="white" stroke="#666666" points="278,-134 124,-134 124,-114 278,-114 278,-134"/>
<text xml:space="preserve" text-anchor="middle" x="201" y="-120.5" font-family="Helvetica,sans-Serif" font-size="10.00">App\Form\SortieAnnulationType</text>
</a>
</g>
</g>
<!-- Node0&#45;&gt;Node6 -->
<g id="edge16_Node000000_Node000006" class="edge">
<title>Node0&#45;&gt;Node6</title>
<g id="a_edge16_Node000000_Node000006"><a xlink:title=" ">
<path fill="none" stroke="#63b8ff" d="M84.98,-149.18C93.22,-147.04 101.72,-144.91 109.75,-143 122.21,-140.04 135.7,-137.08 148.35,-134.4"/>
<polygon fill="#63b8ff" stroke="#63b8ff" points="84.23,-145.76 75.44,-151.69 86.01,-152.53 84.23,-145.76"/>
</a>
</g>
</g>
<!-- Node7 -->
<g id="Node000007" class="node">
<title>Node7</title>
<g id="a_Node000007"><a xlink:href="class_app_1_1_form_1_1_sortie_type.html" target="_top" xlink:title=" ">
<polygon fill="white" stroke="#666666" points="255.13,-96 146.88,-96 146.88,-76 255.13,-76 255.13,-96"/>
<text xml:space="preserve" text-anchor="middle" x="201" y="-82.5" font-family="Helvetica,sans-Serif" font-size="10.00">App\Form\SortieType</text>
</a>
</g>
</g>
<!-- Node0&#45;&gt;Node7 -->
<g id="edge17_Node000000_Node000007" class="edge">
<title>Node0&#45;&gt;Node7</title>
<g id="a_edge17_Node000000_Node000007"><a xlink:title=" ">
<path fill="none" stroke="#63b8ff" d="M55.55,-144.07C69.2,-131.27 89.17,-114.66 109.75,-105 121.2,-99.62 134.18,-95.76 146.65,-92.98"/>
<polygon fill="#63b8ff" stroke="#63b8ff" points="53.38,-141.3 48.64,-150.77 58.26,-146.33 53.38,-141.3"/>
</a>
</g>
</g>
<!-- Node8 -->
<g id="Node000008" class="node">
<title>Node8</title>
<g id="a_Node000008"><a xlink:href="class_app_1_1_form_1_1_user_type.html" target="_top" xlink:title=" ">
<polygon fill="white" stroke="#666666" points="252.88,-58 149.13,-58 149.13,-38 252.88,-38 252.88,-58"/>
<text xml:space="preserve" text-anchor="middle" x="201" y="-44.5" font-family="Helvetica,sans-Serif" font-size="10.00">App\Form\UserType</text>
</a>
</g>
</g>
<!-- Node0&#45;&gt;Node8 -->
<g id="edge18_Node000000_Node000008" class="edge">
<title>Node0&#45;&gt;Node8</title>
<g id="a_edge18_Node000000_Node000008"><a xlink:title=" ">
<path fill="none" stroke="#63b8ff" d="M47.7,-141.53C59.35,-119.54 80.9,-85.3 109.75,-67 121.38,-59.62 135.38,-55.06 148.85,-52.25"/>
<polygon fill="#63b8ff" stroke="#63b8ff" points="44.6,-139.91 43.2,-150.41 50.84,-143.07 44.6,-139.91"/>
</a>
</g>
</g>
<!-- Node9 -->
<g id="Node000009" class="node">
<title>Node9</title>
<g id="a_Node000009"><a xlink:href="class_app_1_1_form_1_1_ville_type.html" target="_top" xlink:title=" ">
<polygon fill="white" stroke="#666666" points="251.75,-20 150.25,-20 150.25,0 251.75,0 251.75,-20"/>
<text xml:space="preserve" text-anchor="middle" x="201" y="-6.5" font-family="Helvetica,sans-Serif" font-size="10.00">App\Form\VilleType</text>
</a>
</g>
</g>
<!-- Node0&#45;&gt;Node9 -->
<g id="edge19_Node000000_Node000009" class="edge">
<title>Node0&#45;&gt;Node9</title>
<g id="a_edge19_Node000000_Node000009"><a xlink:title=" ">
<path fill="none" stroke="#63b8ff" d="M43.21,-140.92C51.9,-111.11 72.04,-57.16 109.75,-29 121.3,-20.38 135.88,-15.47 149.94,-12.73"/>
<polygon fill="#63b8ff" stroke="#63b8ff" points="39.91,-139.7 40.66,-150.27 46.67,-141.55 39.91,-139.7"/>
</a>
</g>
</g>
</g>
</svg>
